<svg width="54" height="31" viewBox="0 0 54 31" fill="none" xmlns="http://www.w3.org/2000/svg">
<path fill-rule="evenodd" clip-rule="evenodd" d="M0.0408694 16.8393C0.464547 22.6331 4.47768 27.275 12.0803 30.7649C21.1988 20.578 34.9739 10.3231 53.4055 0C40.7182 5.27034 28.4481 11.9515 16.5949 20.0438C12.4253 16.5201 10.6889 13.6845 11.3857 11.5368C12.3565 8.65715 14.71 7.8025 18.4469 8.97301C16.0418 8.62066 14.7734 9.04317 14.6412 10.2405C14.5289 11.0205 14.9886 11.4896 15.4918 11.8269C16.3525 12.4038 17.4686 12.4793 19.2856 12.2941C20.9651 12.1352 22.3638 12.6791 23.4818 13.9255C24.0753 14.2444 24.3742 13.9336 24.3789 12.9932C25.3768 13.0309 26.0134 12.9629 26.289 12.7894C21.7345 9.95295 18.5317 7.68041 16.6811 5.97203C15.2049 4.90385 17.4069 4.03293 17.5 3.75C10.6063 2.84814 6.2856 4.84697 4.67123 7.22482C1.26586 10.0726 -0.277672 13.2774 0.0408694 16.8393Z" fill="#32495E"/>
</svg>
