<svg width="62" height="38" viewBox="0 0 62 38" fill="none" xmlns="http://www.w3.org/2000/svg">
<path fill-rule="evenodd" clip-rule="evenodd" d="M43.2582 6.04098C32.9435 8.19895 18.5513 17.104 0.081543 32.7561C17.7356 13.211 32.397 2.48906 44.0682 0.592692C53.2429 -0.553151 59.1851 2.36009 61.8948 9.33285C62.8354 15.0538 57.4722 21.1913 45.8047 27.7453C38.4978 32.0612 32.5556 35.4796 27.9781 38.0001C21.7126 35.3582 15.9248 32.173 10.6145 28.4443C24.2634 17.8355 33.5241 12.5137 38.3963 12.4792C41.5206 11.9749 43.2473 13.0431 43.5765 15.6836C43.4781 17.2419 42.5907 18.4655 40.9142 19.3547C41.1407 17.1949 40.2917 15.7966 38.3674 15.1594C35.312 14.6155 33.3442 15.4312 32.4639 17.6064C30.8341 21.9455 29.4451 24.4802 28.2965 25.2104C26.2002 26.2455 25.3224 27.1778 25.6632 28.0072C26.0934 29.1055 26.489 29.7465 26.8497 29.93C27.4207 29.1152 27.9511 28.6102 28.4413 28.4151C28.8765 28.8046 28.4039 29.6883 27.0233 31.0663C27.6134 31.6083 28.3753 31.5693 29.3094 30.9497C38.681 24.8577 44.7776 21.0121 47.5993 19.4128C48.4678 19.0051 49.4711 19.481 50.6089 20.8403C50.8518 19.2139 51.0255 17.2329 51.1296 14.8975C53.4195 10.7488 53.6123 7.95197 51.7083 6.50713C49.1207 5.2547 46.3039 5.09931 43.2582 6.04098Z" fill="#F9F9F9"/>
</svg>
